<svg width="186" height="186" xmlns="http://www.w3.org/2000/svg" xmlns:xlink="http://www.w3.org/1999/xlink" xml:space="preserve" overflow="hidden"><g transform="translate(-466 -186)"><g><g><g><g><path d="M559.5 306.479C544.6 306.479 532.521 294.4 532.521 279.5 532.521 264.6 544.6 252.521 559.5 252.521 574.4 252.521 586.479 264.6 586.479 279.5 586.479 294.4 574.4 306.479 559.5 306.479M616.773 286.977C617.081 284.51 617.312 282.044 617.312 279.5 617.312 276.956 617.081 274.413 616.773 271.792L633.038 259.227C634.502 258.071 634.888 255.99 633.963 254.294L618.546 227.623C617.621 225.927 615.54 225.233 613.844 225.927L594.65 233.635C590.642 230.629 586.479 228.008 581.623 226.081L578.771 205.654C578.463 203.804 576.844 202.417 574.917 202.417L544.083 202.417C542.156 202.417 540.537 203.804 540.229 205.654L537.377 226.081C532.521 228.008 528.358 230.629 524.35 233.635L505.156 225.927C503.46 225.233 501.379 225.927 500.454 227.623L485.038 254.294C484.035 255.99 484.498 258.071 485.962 259.227L502.227 271.792C501.919 274.413 501.688 276.956 501.688 279.5 501.688 282.044 501.919 284.51 502.227 286.977L485.962 299.773C484.498 300.929 484.035 303.01 485.038 304.706L500.454 331.377C501.379 333.073 503.46 333.69 505.156 333.073L524.35 325.288C528.358 328.371 532.521 330.992 537.377 332.919L540.229 353.346C540.537 355.196 542.156 356.583 544.083 356.583L574.917 356.583C576.844 356.583 578.463 355.196 578.771 353.346L581.623 332.919C586.479 330.915 590.642 328.371 594.65 325.288L613.844 333.073C615.54 333.69 617.621 333.073 618.546 331.377L633.963 304.706C634.888 303.01 634.502 300.929 633.038 299.773L616.773 286.977Z" fill="#FFFFFF" fill-rule="nonzero" fill-opacity="1"/></g></g></g></g></g></svg>