<svg width="144" height="144" xmlns="http://www.w3.org/2000/svg" xmlns:xlink="http://www.w3.org/1999/xlink" xml:space="preserve" overflow="hidden"><g transform="translate(-508 -228)"><g><g><g><g><path d="M580.5 261.771C592.017 261.771 601.354 271.108 601.354 282.625 601.354 294.142 592.017 303.479 580.5 303.479 568.983 303.479 559.646 294.142 559.646 282.625 559.646 271.108 568.983 261.771 580.5 261.771M538.792 276.667C542.128 276.667 545.227 277.56 547.908 279.169 547.014 287.69 549.517 296.15 554.641 302.764 551.662 308.484 545.703 312.417 538.792 312.417 528.92 312.417 520.917 304.414 520.917 294.542 520.917 284.67 528.92 276.667 538.792 276.667M622.208 276.667C632.08 276.667 640.083 284.67 640.083 294.542 640.083 304.414 632.08 312.417 622.208 312.417 615.297 312.417 609.338 308.484 606.359 302.764 611.483 296.15 613.986 287.69 613.092 279.169 615.773 277.56 618.872 276.667 622.208 276.667M541.771 337.74C541.771 325.406 559.11 315.396 580.5 315.396 601.89 315.396 619.229 325.406 619.229 337.74L619.229 348.167 541.771 348.167 541.771 337.74M509 348.167 509 339.229C509 330.947 520.261 323.976 535.515 321.95 531.999 326.002 529.854 331.603 529.854 337.74L529.854 348.167 509 348.167M652 348.167 631.146 348.167 631.146 337.74C631.146 331.603 629.001 326.002 625.485 321.95 640.739 323.976 652 330.947 652 339.229L652 348.167Z" fill="#FFFFFF" fill-rule="nonzero" fill-opacity="1"/></g></g></g></g></g></svg>