<svg width="100" height="100" xmlns="http://www.w3.org/2000/svg" xmlns:xlink="http://www.w3.org/1999/xlink" xml:space="preserve" overflow="hidden"><g transform="translate(-598 -168)"><g><g><g><g><path d="M689.75 180.375 607.25 180.375C602.754 180.54 599.165 184.129 599 188.625L599 246.375C599.165 250.871 602.754 254.46 607.25 254.625L689.75 254.625C694.246 254.46 697.835 250.871 698 246.375L698 188.625C697.835 184.129 694.246 180.54 689.75 180.375M689.75 246.375 607.25 246.375 607.25 188.625 689.75 188.625 689.75 246.375M656.75 238.125 656.75 232.969C656.75 226.121 642.972 222.656 636.125 222.656 629.278 222.656 615.5 226.121 615.5 232.969L615.5 238.125 656.75 238.125M636.125 196.875C630.43 196.875 625.812 201.492 625.812 207.188 625.812 212.883 630.43 217.5 636.125 217.5 641.82 217.5 646.438 212.883 646.438 207.188 646.438 201.492 641.82 196.875 636.125 196.875M656.75 196.875 656.75 201 681.5 201 681.5 196.875 656.75 196.875M656.75 205.125 656.75 209.25 681.5 209.25 681.5 205.125 656.75 205.125M656.75 213.375 656.75 217.5 673.25 217.5 673.25 213.375 656.75 213.375" fill="#FFFFFF" fill-rule="nonzero" fill-opacity="1"/></g></g></g></g></g></svg>