<svg width="152" height="152" xmlns="http://www.w3.org/2000/svg" xmlns:xlink="http://www.w3.org/1999/xlink" xml:space="preserve" overflow="hidden"><g transform="translate(-882 -117)"><g><g><g><g><path d="M952.208 231.25 964.792 231.25 964.792 218.667 952.208 218.667 952.208 231.25M958.5 155.75C944.601 155.75 933.333 167.018 933.333 180.917L945.917 180.917C945.917 173.967 951.55 168.333 958.5 168.333 965.45 168.333 971.083 173.967 971.083 180.917 971.083 193.5 952.208 191.927 952.208 212.375L964.792 212.375C964.792 198.219 983.667 196.646 983.667 180.917 983.667 167.018 972.399 155.75 958.5 155.75M914.458 136.875 1002.54 136.875C1009.49 136.875 1015.12 142.509 1015.12 149.458L1015.12 237.542C1015.12 244.491 1009.49 250.125 1002.54 250.125L914.458 250.125C907.509 250.125 901.875 244.491 901.875 237.542L901.875 149.458C901.875 142.509 907.509 136.875 914.458 136.875Z" fill="#FFFFFF" fill-rule="nonzero" fill-opacity="1"/></g></g></g></g></g></svg>