<svg width="118" height="119" xmlns="http://www.w3.org/2000/svg" xmlns:xlink="http://www.w3.org/1999/xlink" xml:space="preserve" overflow="hidden"><g transform="translate(-810 -197)"><g><g><g><g><path d="M889 241.875 915.812 241.875 889 215.062 889 241.875M845.125 207.75 893.875 207.75 923.125 237 923.125 285.75C923.125 291.135 918.76 295.5 913.375 295.5L845.125 295.5C839.714 295.5 835.375 291.112 835.375 285.75L835.375 217.5C835.375 212.115 839.74 207.75 845.125 207.75M825.625 227.25 825.625 305.25 913.375 305.25 913.375 315 825.625 315C820.24 315 815.875 310.635 815.875 305.25L815.875 227.25 825.625 227.25Z" fill="#FFFFFF" fill-rule="nonzero" fill-opacity="1"/></g></g></g></g></g></svg>